<svg width="12" height="12" viewBox="0 0 12 12" fill="none" xmlns="http://www.w3.org/2000/svg">
<path d="M0.744014 0.796875H11.2403C11.4035 0.796875 11.5415 0.853264 11.6543 0.966042C11.767 1.07882 11.8234 1.21688 11.8234 1.38021V10.7135C11.8234 10.8769 11.767 11.0149 11.6543 11.1277C11.5415 11.2405 11.4035 11.2969 11.2403 11.2969H0.744014C0.580739 11.2969 0.442732 11.2405 0.329995 11.1277C0.217257 11.0149 0.160889 10.8769 0.160889 10.7135V1.38021C0.160889 1.21688 0.217257 1.07882 0.329995 0.966042C0.442732 0.853264 0.580739 0.796875 0.744014 0.796875ZM10.6571 5.46354H1.32714V10.1302H10.6571V5.46354ZM10.6571 4.29688V1.96354H1.32714V4.29688H10.6571ZM7.15839 7.79688H9.49089V8.96354H7.15839V7.79688Z" fill="black"/>
</svg>
