<svg width="12" height="12" viewBox="0 0 12 12" fill="none" xmlns="http://www.w3.org/2000/svg">
<path d="M0.160889 10.6666H11.8234V11.8333H0.160889V10.6666ZM1.32714 5.99998H2.49339V10.0833H1.32714V5.99998ZM4.24276 5.99998H5.40901V10.0833H4.24276V5.99998ZM6.57526 5.99998H7.74151V10.0833H6.57526V5.99998ZM9.49089 5.99998H10.6571V10.0833H9.49089V5.99998ZM0.160889 3.08331L5.99214 0.166646L11.8234 3.08331V5.41665H0.160889V3.08331ZM1.32714 3.80665V4.24998H10.6571V3.80665L5.99214 1.47331L1.32714 3.80665ZM5.99214 3.66665C5.82886 3.66665 5.69086 3.61026 5.57812 3.49748C5.46538 3.3847 5.40901 3.24665 5.40901 3.08331C5.40901 2.91998 5.46538 2.78192 5.57812 2.66915C5.69086 2.55637 5.82886 2.49998 5.99214 2.49998C6.15541 2.49998 6.29342 2.55637 6.40616 2.66915C6.5189 2.78192 6.57526 2.91998 6.57526 3.08331C6.57526 3.24665 6.5189 3.3847 6.40616 3.49748C6.29342 3.61026 6.15541 3.66665 5.99214 3.66665Z" fill="black"/>
</svg>
