<svg width="14" height="12" viewBox="0 0 14 12" fill="none" xmlns="http://www.w3.org/2000/svg">
<path d="M6.9922 0.423541C7.82412 0.423541 8.61717 0.547986 9.37135 0.796875C10.11 1.03799 10.7611 1.37826 11.3248 1.81771C11.8885 2.25715 12.3258 2.76076 12.6368 3.32854C12.9556 3.92743 13.115 4.54965 13.115 5.19521C13.115 5.84076 12.9556 6.4591 12.6368 7.05021C12.3258 7.61799 11.8885 8.12354 11.3248 8.56687C10.7611 9.01021 10.11 9.35243 9.37135 9.59354C8.61717 9.84243 7.82412 9.96688 6.9922 9.96688C6.65787 9.96688 6.32355 9.94354 5.98922 9.89688L3.41181 11.5885C3.26408 11.6663 3.1669 11.6897 3.12025 11.6585C3.0736 11.6274 3.08137 11.5224 3.14357 11.3435L3.65672 9.19688C2.80147 8.76132 2.12893 8.19743 1.63911 7.50521C1.12596 6.78965 0.869385 6.01965 0.869385 5.19521C0.869385 4.54965 1.02877 3.92743 1.34755 3.32854C1.65855 2.76076 2.09589 2.25715 2.65958 1.81771C3.22327 1.37826 3.87442 1.03799 4.61305 0.796875C5.36722 0.547986 6.16027 0.423541 6.9922 0.423541ZM10.4326 5.11354L11.2957 4.28521C11.3501 4.23854 11.3773 4.17632 11.3773 4.09854C11.3773 4.02076 11.352 3.95465 11.3015 3.90021C11.251 3.84576 11.1868 3.81854 11.1091 3.81854C11.0313 3.81854 10.9652 3.84187 10.9108 3.88854L9.7912 4.98521V4.08687C9.7912 4.0091 9.76398 3.94299 9.70956 3.88854C9.65514 3.8341 9.58905 3.80687 9.5113 3.80687C9.43355 3.80687 9.36746 3.8341 9.31304 3.88854C9.25861 3.94299 9.2314 4.0091 9.2314 4.08687V5.56854C9.22362 5.61521 9.22362 5.66188 9.2314 5.70854V6.54854C9.2314 6.61854 9.25861 6.68076 9.31304 6.73521C9.36746 6.78965 9.43355 6.81687 9.5113 6.81687C9.58905 6.81687 9.65514 6.78965 9.70956 6.73521C9.76398 6.68076 9.7912 6.61854 9.7912 6.54854V5.74354L10.0361 5.51021L10.8641 6.68854C10.9186 6.76632 10.9963 6.80521 11.0974 6.80521C11.1518 6.80521 11.2024 6.78965 11.249 6.75854C11.3112 6.71187 11.3501 6.6516 11.3656 6.57771C11.3812 6.50382 11.3656 6.43576 11.319 6.37354L10.4326 5.11354ZM8.70658 6.24521H7.85522V4.08687C7.85522 4.01687 7.82995 3.95465 7.77942 3.90021C7.72888 3.84576 7.66473 3.81854 7.58698 3.81854C7.50923 3.81854 7.44315 3.84576 7.38872 3.90021C7.3343 3.95465 7.30708 4.01687 7.30708 4.08687V6.51354C7.30708 6.59132 7.3343 6.65743 7.38872 6.71187C7.44315 6.76632 7.50923 6.79354 7.58698 6.79354H8.70658C8.78433 6.79354 8.85042 6.76632 8.90485 6.71187C8.95927 6.65743 8.98648 6.59326 8.98648 6.51937C8.98648 6.44549 8.95927 6.38132 8.90485 6.32688C8.85042 6.27243 8.78433 6.24521 8.70658 6.24521ZM5.30113 5.60354L5.69766 4.61187L6.07086 5.60354H5.30113ZM6.77061 5.89521C6.77061 5.88743 6.77061 5.88354 6.77061 5.88354C6.77061 5.81354 6.7434 5.75132 6.68897 5.69687L6.08252 4.06354C6.0592 3.97799 6.01255 3.90993 5.94257 3.85937C5.8726 3.80882 5.79679 3.78354 5.71515 3.78354C5.63352 3.78354 5.55965 3.80687 5.49357 3.85354C5.42748 3.90021 5.375 3.96243 5.33612 4.04021L4.36813 6.42021C4.33703 6.49021 4.33703 6.56021 4.36813 6.63021C4.39923 6.70021 4.44977 6.75076 4.51975 6.78188C4.58972 6.81299 4.6597 6.81299 4.72967 6.78188C4.79965 6.75076 4.85018 6.70021 4.88128 6.63021L5.06788 6.15188H6.28078L6.45572 6.61854C6.47127 6.67299 6.50432 6.71771 6.55485 6.75271C6.60539 6.78771 6.65787 6.80521 6.7123 6.80521C6.7434 6.80521 6.7745 6.79743 6.8056 6.78188C6.87557 6.75854 6.92611 6.71187 6.95721 6.64188C6.98831 6.57188 6.9922 6.50187 6.96887 6.43188L6.77061 5.89521ZM4.83463 4.09854C4.83463 4.02076 4.80742 3.95465 4.753 3.90021C4.69857 3.84576 4.63248 3.81854 4.55473 3.81854H2.66541C2.58766 3.81854 2.52157 3.84576 2.46715 3.90021C2.41272 3.95465 2.38551 4.01882 2.38551 4.09271C2.38551 4.1666 2.41272 4.23076 2.46715 4.28521C2.52157 4.33965 2.58766 4.36687 2.66541 4.36687H3.34183V6.54854C3.34183 6.62632 3.36905 6.69243 3.42347 6.74687C3.4779 6.80132 3.54204 6.82854 3.6159 6.82854C3.68977 6.82854 3.75391 6.80132 3.80833 6.74687C3.86276 6.69243 3.88997 6.62632 3.88997 6.54854V4.36687H4.55473C4.63248 4.36687 4.69857 4.33965 4.753 4.28521C4.80742 4.23076 4.83463 4.16854 4.83463 4.09854Z" fill="#FACC15"/>
</svg>
