<svg width="20" height="20" viewBox="0 0 20 20" fill="none" xmlns="http://www.w3.org/2000/svg">
<rect width="20" height="20" fill="#F5F5F5"/>
<g id="&#235;&#167;&#136;&#236;&#157;&#180;&#237;&#142;&#152;&#236;&#157;&#180;&#236;&#167;&#128; - &#236;&#157;&#184;&#236;&#166;&#157;&#235;&#130;&#180;&#236;&#151;&#173;">
<rect width="375" height="949.047" transform="translate(-22 -22)" fill="white"/>
<g id="NAV-121" clip-path="url(#clip0_0_1)" filter="url(#filter0_dd_0_1)">
<rect width="375" height="56" transform="translate(-22 -22)" fill="#E53E3E"/>
<g id="DIV-122">
<g id="DIV-123">
<path id="logo-125" d="M2.54 10.54C2.71333 10.54 2.84667 10.62 2.94 10.78C3.04667 10.94 3.1 11.16 3.1 11.44C3.1 11.9733 2.97333 12.3867 2.72 12.68C2.14667 13.3867 1.52 13.9667 0.84 14.42C0.173334 14.8733 -0.586666 15.1 -1.44 15.1C-2.61333 15.1 -3.48667 14.5667 -4.06 13.5C-4.62 12.4333 -4.9 11.0533 -4.9 9.36C-4.9 7.73333 -4.69333 5.88 -4.28 3.8C-3.85333 1.72 -3.23333 -0.0666674 -2.42 -1.56C-1.59333 -3.05333 -0.613333 -3.8 0.52 -3.8C1.16 -3.8 1.66 -3.5 2.02 -2.9C2.39333 -2.31333 2.58 -1.46667 2.58 -0.36C2.58 1.22667 2.14 3.06667 1.26 5.16C0.38 7.25333 -0.813333 9.32667 -2.32 11.38C-2.22667 11.9267 -2.07333 12.32 -1.86 12.56C-1.64667 12.7867 -1.36667 12.9 -1.02 12.9C-0.473333 12.9 0.00666702 12.7467 0.42 12.44C0.833334 12.12 1.36 11.58 2 10.82C2.16 10.6333 2.34 10.54 2.54 10.54ZM0.0800004 -1.82C-0.226666 -1.82 -0.573333 -1.26667 -0.96 -0.16C-1.34667 0.946666 -1.68667 2.32 -1.98 3.96C-2.27333 5.6 -2.43333 7.17333 -2.46 8.68C-1.51333 7.12 -0.76 5.56 -0.2 4C0.36 2.42667 0.64 0.993332 0.64 -0.300001C0.64 -1.31333 0.453334 -1.82 0.0800004 -1.82ZM11.6834 8.86C11.8568 8.86 11.9901 8.94667 12.0834 9.12C12.1768 9.29333 12.2234 9.51333 12.2234 9.78C12.2234 10.42 12.0301 10.8 11.6434 10.92C10.8434 11.2 9.96344 11.36 9.00344 11.4C8.7501 12.52 8.2501 13.42 7.50344 14.1C6.75677 14.7667 5.9101 15.1 4.96344 15.1C4.16344 15.1 3.47677 14.9067 2.90344 14.52C2.34344 14.1333 1.91677 13.62 1.62344 12.98C1.3301 12.34 1.18344 11.6467 1.18344 10.9C1.18344 9.88667 1.37677 8.98667 1.76344 8.2C2.1501 7.4 2.68344 6.78 3.36344 6.34C4.04344 5.88667 4.79677 5.66 5.62344 5.66C6.63677 5.66 7.4501 6.01333 8.06344 6.72C8.6901 7.41333 9.05677 8.27333 9.16344 9.3C9.7901 9.26 10.5368 9.12667 11.4034 8.9C11.5101 8.87333 11.6034 8.86 11.6834 8.86ZM5.12344 12.98C5.5501 12.98 5.91677 12.8067 6.22344 12.46C6.54344 12.1133 6.75677 11.6133 6.86344 10.96C6.4501 10.68 6.1301 10.3133 5.90344 9.86C5.6901 9.40667 5.58344 8.92667 5.58344 8.42C5.58344 8.20667 5.60344 7.99333 5.64344 7.78H5.54344C5.0101 7.78 4.56344 8.04 4.20344 8.56C3.85677 9.06667 3.68344 9.78667 3.68344 10.72C3.68344 11.4533 3.82344 12.0133 4.10344 12.4C4.39677 12.7867 4.73677 12.98 5.12344 12.98ZM20.7469 10.58C20.9202 10.58 21.0535 10.6667 21.1469 10.84C21.2535 11 21.3069 11.2067 21.3069 11.46C21.3069 11.7667 21.2602 12.0067 21.1669 12.18C21.0735 12.3533 20.9269 12.5067 20.7269 12.64C19.5802 13.4133 18.7402 13.9867 18.2069 14.36L16.9269 15.22C16.4202 17.98 15.7535 20.1467 14.9269 21.72C14.1135 23.3067 13.0735 24.1 11.8069 24.1C11.1269 24.1 10.5735 23.8867 10.1469 23.46C9.72021 23.0467 9.50687 22.5 9.50687 21.82C9.50687 20.8733 9.88021 19.8533 10.6269 18.76C11.3735 17.68 12.7735 16.3467 14.8269 14.76L14.9469 13.98C14.7202 14.34 14.4202 14.62 14.0469 14.82C13.6869 15.0067 13.3269 15.1 12.9669 15.1C12.1402 15.1 11.4802 14.8 10.9869 14.2C10.4935 13.6 10.2469 12.8133 10.2469 11.84C10.2469 10.7733 10.4935 9.76667 10.9869 8.82C11.4802 7.86 12.1335 7.09333 12.9469 6.52C13.7735 5.93333 14.6469 5.64 15.5669 5.64C15.8602 5.64 16.0535 5.7 16.1469 5.82C16.2535 5.92667 16.3402 6.12667 16.4069 6.42C16.6602 6.36667 16.9535 6.34 17.2869 6.34C17.6202 6.34 17.8535 6.39333 17.9869 6.5C18.1335 6.59333 18.2069 6.78667 18.2069 7.08C18.2069 7.24 18.2002 7.36667 18.1869 7.46C18.1335 7.87333 17.9669 8.92 17.6869 10.6C17.6335 10.92 17.5735 11.2733 17.5069 11.66C17.4535 12.0333 17.3935 12.4333 17.3269 12.86C18.3535 12.06 19.3402 11.3533 20.2869 10.74C20.4602 10.6333 20.6135 10.58 20.7469 10.58ZM13.6869 13.08C13.9935 13.08 14.2869 12.8933 14.5669 12.52C14.8469 12.1467 15.0469 11.6133 15.1669 10.92L15.8069 7.5C15.2602 7.51333 14.7535 7.72667 14.2869 8.14C13.8202 8.54 13.4469 9.07333 13.1669 9.74C12.8869 10.4067 12.7469 11.1133 12.7469 11.86C12.7469 12.2733 12.8269 12.58 12.9869 12.78C13.1602 12.98 13.3935 13.08 13.6869 13.08ZM12.0269 22.16C12.3602 22.16 12.7335 21.76 13.1469 20.96C13.5735 20.16 13.9802 18.8867 14.3669 17.14C13.3402 18.02 12.6002 18.8133 12.1469 19.52C11.6935 20.2267 11.4669 20.8467 11.4669 21.38C11.4669 21.6067 11.5069 21.7933 11.5869 21.94C11.6802 22.0867 11.8269 22.16 12.0269 22.16ZM23.4572 15.1C22.6705 15.1 21.9972 14.9067 21.4372 14.52C20.8905 14.12 20.4772 13.6 20.1972 12.96C19.9172 12.32 19.7772 11.6333 19.7772 10.9C19.7772 9.88667 19.9639 8.98667 20.3372 8.2C20.7239 7.4 21.2439 6.78 21.8972 6.34C22.5505 5.88667 23.2839 5.66 24.0972 5.66C24.8839 5.66 25.5572 5.86 26.1172 6.26C26.6772 6.64667 27.0972 7.16 27.3772 7.8C27.6572 8.44 27.7972 9.12667 27.7972 9.86C27.7972 10.8733 27.6039 11.78 27.2172 12.58C26.8305 13.3667 26.3039 13.9867 25.6372 14.44C24.9839 14.88 24.2572 15.1 23.4572 15.1ZM23.6772 12.94C24.1305 12.94 24.5105 12.6933 24.8172 12.2C25.1372 11.7067 25.2972 10.9867 25.2972 10.04C25.2972 9.30667 25.1639 8.75333 24.8972 8.38C24.6305 8.00667 24.3105 7.82 23.9372 7.82C23.4572 7.82 23.0572 8.06667 22.7372 8.56C22.4305 9.04 22.2772 9.76 22.2772 10.72C22.2772 11.48 22.4105 12.04 22.6772 12.4C22.9439 12.76 23.2772 12.94 23.6772 12.94Z" fill="white"/>
</g>
</g>
</g>
<g id="authHistoryModal-130">
<rect width="375" height="812" transform="translate(-22 -22)" fill="white"/>
<g id="DIV-131">
<g id="margin-wrap">
<g id="DIV-132">
<g id="closeAuthHistory-133">
<g id="I-134">
<g id="Icon-135">
<g id="Group">
<path id="Vector" d="M9.17663 9.99994L13.0144 13.84L11.9268 14.9438L6.98584 9.99994L11.9268 5.05604L13.0144 6.15986L9.17663 9.99994Z" fill="black"/>
</g>
</g>
</g>
</g>
</g>
</g>
</g>
</g>
</g>
<defs>
<filter id="filter0_dd_0_1" x="-27" y="-23" width="385" height="66" filterUnits="userSpaceOnUse" color-interpolation-filters="sRGB">
<feFlood flood-opacity="0" result="BackgroundImageFix"/>
<feColorMatrix in="SourceAlpha" type="matrix" values="0 0 0 0 0 0 0 0 0 0 0 0 0 0 0 0 0 0 127 0" result="hardAlpha"/>
<feMorphology radius="1" operator="erode" in="SourceAlpha" result="effect1_dropShadow_0_1"/>
<feOffset dy="4"/>
<feGaussianBlur stdDeviation="3"/>
<feComposite in2="hardAlpha" operator="out"/>
<feColorMatrix type="matrix" values="0 0 0 0 0 0 0 0 0 0 0 0 0 0 0 0 0 0 0.1 0"/>
<feBlend mode="normal" in2="BackgroundImageFix" result="effect1_dropShadow_0_1"/>
<feColorMatrix in="SourceAlpha" type="matrix" values="0 0 0 0 0 0 0 0 0 0 0 0 0 0 0 0 0 0 127 0" result="hardAlpha"/>
<feMorphology radius="2" operator="erode" in="SourceAlpha" result="effect2_dropShadow_0_1"/>
<feOffset dy="2"/>
<feGaussianBlur stdDeviation="2"/>
<feComposite in2="hardAlpha" operator="out"/>
<feColorMatrix type="matrix" values="0 0 0 0 0 0 0 0 0 0 0 0 0 0 0 0 0 0 0.1 0"/>
<feBlend mode="normal" in2="effect1_dropShadow_0_1" result="effect2_dropShadow_0_1"/>
<feBlend mode="normal" in="SourceGraphic" in2="effect2_dropShadow_0_1" result="shape"/>
</filter>
<clipPath id="clip0_0_1">
<rect width="375" height="56" fill="white" transform="translate(-22 -22)"/>
</clipPath>
</defs>
</svg>
