<svg width="16" height="15" viewBox="0 0 16 15" fill="none" xmlns="http://www.w3.org/2000/svg">
<g clip-path="url(#clip0_2_2608)">
<path d="M7.99214 12.6431L10.8728 9.74981C11.4015 9.2287 11.7591 8.61426 11.9457 7.90648C12.1246 7.21426 12.1246 6.52204 11.9457 5.82981C11.7591 5.12204 11.4034 4.50565 10.8786 3.98065C10.3538 3.45565 9.73763 3.09981 9.03011 2.91315C8.33813 2.73426 7.64616 2.73426 6.95418 2.91315C6.24666 3.09981 5.63049 3.45565 5.10567 3.98065C4.58086 4.50565 4.22516 5.12204 4.03856 5.82981C3.85973 6.52204 3.85973 7.21426 4.03856 7.90648C4.22516 8.61426 4.58281 9.2287 5.11151 9.74981L7.99214 12.6431ZM7.99214 14.2881L4.28347 10.5781C3.60704 9.90926 3.15221 9.11592 2.91896 8.19815C2.68571 7.31148 2.68571 6.42481 2.91896 5.53815C3.15221 4.62037 3.6051 3.82509 4.27764 3.15231C4.95017 2.47954 5.74517 2.02259 6.66262 1.78148C7.54897 1.55592 8.43532 1.55592 9.32167 1.78148C10.2391 2.02259 11.0341 2.47954 11.7066 3.15231C12.3792 3.82509 12.8321 4.62037 13.0653 5.53815C13.2986 6.42481 13.2986 7.31148 13.0653 8.19815C12.8321 9.11592 12.3772 9.90926 11.7008 10.5781L7.99214 14.2881ZM7.99214 8.03481C8.20207 8.03481 8.39644 7.98231 8.57527 7.87731C8.75409 7.77231 8.89599 7.63037 9.00095 7.45148C9.10591 7.27259 9.15839 7.07815 9.15839 6.86815C9.15839 6.65815 9.10591 6.4637 9.00095 6.28481C8.89599 6.10592 8.75409 5.96398 8.57527 5.85898C8.39644 5.75398 8.20207 5.70148 7.99214 5.70148C7.78222 5.70148 7.58784 5.75398 7.40902 5.85898C7.23019 5.96398 7.0883 6.10592 6.98334 6.28481C6.87837 6.4637 6.82589 6.65815 6.82589 6.86815C6.82589 7.07815 6.87837 7.27259 6.98334 7.45148C7.0883 7.63037 7.23019 7.77231 7.40902 7.87731C7.58784 7.98231 7.78222 8.03481 7.99214 8.03481ZM7.99214 9.20148C7.57229 9.20148 7.18354 9.09648 6.82589 8.88648C6.46824 8.67648 6.18446 8.39259 5.97453 8.03481C5.76461 7.67704 5.65964 7.2862 5.65964 6.86231C5.65964 6.43842 5.76461 6.04954 5.97453 5.69565C6.18446 5.34176 6.46824 5.05981 6.82589 4.84981C7.18354 4.63981 7.57229 4.53481 7.99214 4.53481C8.41199 4.53481 8.80074 4.63981 9.15839 4.84981C9.51604 5.05981 9.79983 5.34176 10.0098 5.69565C10.2197 6.04954 10.3246 6.43842 10.3246 6.86231C10.3246 7.2862 10.2197 7.67704 10.0098 8.03481C9.79983 8.39259 9.51604 8.67648 9.15839 8.88648C8.80074 9.09648 8.41199 9.20148 7.99214 9.20148Z" fill="#6B7280"/>
</g>
<defs>
<clipPath id="clip0_2_2608">
<rect width="14.5781" height="14" fill="white" transform="translate(0.703125 0.953125)"/>
</clipPath>
</defs>
</svg>
