<svg width="16" height="15" viewBox="0 0 16 15" fill="none" xmlns="http://www.w3.org/2000/svg">
<path d="M13.2403 2.70312C13.4035 2.70312 13.5415 2.75951 13.6543 2.87229C13.767 2.98507 13.8234 3.12313 13.8234 3.28646V6.49479C13.559 6.49479 13.3161 6.5609 13.0945 6.69312C12.8729 6.82535 12.696 7.00229 12.5638 7.22396C12.4317 7.44562 12.3656 7.68868 12.3656 7.95312C12.3656 8.21757 12.4317 8.46063 12.5638 8.68229C12.696 8.90396 12.8729 9.0809 13.0945 9.21312C13.3161 9.34535 13.559 9.41146 13.8234 9.41146V12.6198C13.8234 12.7831 13.767 12.9212 13.6543 13.034C13.5415 13.1467 13.4035 13.2031 13.2403 13.2031H2.74401C2.58074 13.2031 2.44273 13.1467 2.32999 13.034C2.21726 12.9212 2.16089 12.7831 2.16089 12.6198V9.41146C2.42524 9.41146 2.66821 9.34535 2.88979 9.21312C3.11138 9.0809 3.28826 8.90396 3.42044 8.68229C3.55261 8.46063 3.6187 8.21757 3.6187 7.95312C3.6187 7.68868 3.55261 7.44562 3.42044 7.22396C3.28826 7.00229 3.11138 6.82535 2.88979 6.69312C2.66821 6.5609 2.42524 6.49479 2.16089 6.49479V3.28646C2.16089 3.12313 2.21726 2.98507 2.32999 2.87229C2.44273 2.75951 2.58074 2.70312 2.74401 2.70312H13.2403ZM12.6571 3.86979H3.32714V5.59646L3.42044 5.64313C3.81696 5.8609 4.13768 6.16424 4.38259 6.55312C4.62751 6.94201 4.76163 7.3659 4.78495 7.82479V7.95312C4.78495 8.44312 4.66055 8.89229 4.41175 9.30063C4.16295 9.70896 3.83251 10.0298 3.42044 10.2631L3.32714 10.3098V12.0365H12.6571V10.3098L12.5638 10.2631C12.1673 10.0453 11.8466 9.74201 11.6017 9.35313C11.3568 8.96424 11.2227 8.54035 11.1993 8.08146V7.95312C11.1993 7.46312 11.3237 7.01396 11.5725 6.60563C11.8213 6.19729 12.1518 5.87646 12.5638 5.64313L12.6571 5.59646V3.86979Z" fill="#6B7280"/>
</svg>
