<svg width="16" height="15" viewBox="0 0 16 15" fill="none" xmlns="http://www.w3.org/2000/svg">
<path d="M11.4288 10.1017L13.9246 12.5983L13.0965 13.4267L10.6007 10.93C10.142 11.2956 9.64053 11.5756 9.09628 11.77C8.52093 11.9722 7.93003 12.0733 7.32358 12.0733C6.37503 12.0733 5.49256 11.8361 4.67619 11.3617C3.88314 10.895 3.25725 10.265 2.79853 9.47167C2.31648 8.655 2.07545 7.77222 2.07545 6.82333C2.07545 5.87444 2.31648 4.99167 2.79853 4.175C3.25725 3.38167 3.88314 2.75556 4.67619 2.29667C5.49256 1.81444 6.37503 1.57333 7.32358 1.57333C8.27213 1.57333 9.15459 1.81444 9.97096 2.29667C10.764 2.75556 11.3938 3.38167 11.8603 4.175C12.3346 4.99167 12.5717 5.87444 12.5717 6.82333C12.5717 7.43 12.4706 8.02111 12.2685 8.59667C12.0741 9.14111 11.7942 9.64278 11.4288 10.1017ZM10.2509 9.67C10.6163 9.29667 10.9001 8.86889 11.1022 8.38667C11.3044 7.88889 11.4055 7.36778 11.4055 6.82333C11.4055 6.08444 11.2189 5.39611 10.8457 4.75833C10.488 4.14389 10.0021 3.65778 9.38784 3.3C8.75029 2.92667 8.0622 2.74 7.32358 2.74C6.58495 2.74 5.89686 2.92667 5.25931 3.3C4.64509 3.65778 4.15915 4.14389 3.8015 4.75833C3.4283 5.39611 3.2417 6.08444 3.2417 6.82333C3.2417 7.56222 3.4283 8.25056 3.8015 8.88833C4.15915 9.50278 4.64509 9.98889 5.25931 10.3467C5.89686 10.72 6.58495 10.9067 7.32358 10.9067C7.86783 10.9067 8.38875 10.8056 8.88635 10.6033C9.3684 10.4011 9.79603 10.1172 10.1692 9.75167L10.2509 9.67Z" fill="black"/>
</svg>
