<svg width="15" height="15" viewBox="0 0 15 15" fill="none" xmlns="http://www.w3.org/2000/svg">
<path d="M12.7481 11.9235C12.7481 12.0868 12.6917 12.2249 12.579 12.3377C12.4663 12.4504 12.3283 12.5068 12.165 12.5068H2.83499C2.67171 12.5068 2.53371 12.4504 2.42097 12.3377C2.30823 12.2249 2.25186 12.0868 2.25186 11.9235V5.7985C2.25186 5.60406 2.32572 5.4485 2.47345 5.33184L7.13845 1.7035C7.2473 1.62572 7.36781 1.58684 7.49999 1.58684C7.63216 1.58684 7.75267 1.62572 7.86152 1.7035L12.5265 5.33184C12.6742 5.4485 12.7481 5.60406 12.7481 5.7985V11.9235ZM6.91686 7.84017V11.3402H8.08311V7.84017H6.91686Z" fill="#E53E3E"/>
</svg>
