<svg width="15" height="15" viewBox="0 0 15 15" fill="none" xmlns="http://www.w3.org/2000/svg">
<path d="M8.07539 11.3402H11.5741V6.0785L7.49227 2.90517L3.41039 6.0785V11.3402H6.90914V7.84017H8.07539V11.3402ZM12.7404 11.9235C12.7404 12.0868 12.684 12.2249 12.5713 12.3377C12.4585 12.4504 12.3205 12.5068 12.1573 12.5068H2.82727C2.66399 12.5068 2.52598 12.4504 2.41325 12.3377C2.30051 12.2249 2.24414 12.0868 2.24414 11.9235V5.7985C2.24414 5.60406 2.318 5.4485 2.46573 5.33184L7.13073 1.7035C7.23958 1.62572 7.36009 1.58684 7.49227 1.58684C7.62444 1.58684 7.74495 1.62572 7.8538 1.7035L12.5188 5.33184C12.6665 5.4485 12.7404 5.60406 12.7404 5.7985V11.9235Z" fill="#6B7280"/>
</svg>
