<svg width="15" height="14" viewBox="0 0 15 14" fill="none" xmlns="http://www.w3.org/2000/svg">
<path d="M2.83496 13.125C2.83496 12.2772 3.04877 11.4917 3.4764 10.7683C3.88847 10.0683 4.44439 9.51222 5.14414 9.1C5.86721 8.67222 6.65249 8.45833 7.49996 8.45833C8.34744 8.45833 9.13271 8.67222 9.85579 9.1C10.5555 9.51222 11.1114 10.0683 11.5235 10.7683C11.9511 11.4917 12.165 12.2772 12.165 13.125H2.83496ZM7.49996 7.875C6.86241 7.875 6.2754 7.71556 5.73892 7.39667C5.21022 7.08556 4.79037 6.66556 4.47937 6.13667C4.1606 5.6 4.00121 5.01278 4.00121 4.375C4.00121 3.73722 4.1606 3.15 4.47937 2.61333C4.79037 2.08444 5.21022 1.66444 5.73892 1.35333C6.2754 1.03444 6.86241 0.875 7.49996 0.875C8.13751 0.875 8.72452 1.03444 9.261 1.35333C9.7897 1.66444 10.2095 2.08444 10.5205 2.61333C10.8393 3.15 10.9987 3.73722 10.9987 4.375C10.9987 5.01278 10.8393 5.6 10.5205 6.13667C10.2095 6.66556 9.7897 7.08556 9.261 7.39667C8.72452 7.71556 8.13751 7.875 7.49996 7.875Z" fill="#E53E3E"/>
</svg>
