<svg width="15" height="14" viewBox="0 0 15 14" fill="none" xmlns="http://www.w3.org/2000/svg">
<path d="M2.82715 13.125C2.82715 12.2772 3.04096 11.4917 3.46859 10.7683C3.88066 10.0683 4.43657 9.51222 5.13632 9.1C5.8594 8.67222 6.64467 8.45833 7.49215 8.45833C8.33962 8.45833 9.1249 8.67222 9.84797 9.1C10.5477 9.51222 11.1036 10.0683 11.5157 10.7683C11.9433 11.4917 12.1571 12.2772 12.1571 13.125H10.9909C10.9909 12.495 10.8315 11.9078 10.5127 11.3633C10.2017 10.8344 9.78189 10.4144 9.25319 10.1033C8.70894 9.78444 8.12192 9.625 7.49215 9.625C6.86237 9.625 6.27536 9.78444 5.73111 10.1033C5.20241 10.4144 4.78256 10.8344 4.47156 11.3633C4.15279 11.9078 3.9934 12.495 3.9934 13.125H2.82715ZM7.49215 7.875C6.8546 7.875 6.26759 7.71556 5.73111 7.39667C5.20241 7.08556 4.78256 6.66556 4.47156 6.13667C4.15279 5.6 3.9934 5.01278 3.9934 4.375C3.9934 3.73722 4.15279 3.15 4.47156 2.61333C4.78256 2.08444 5.20241 1.66444 5.73111 1.35333C6.26759 1.03444 6.8546 0.875 7.49215 0.875C8.1297 0.875 8.71671 1.03444 9.25319 1.35333C9.78189 1.66444 10.2017 2.08444 10.5127 2.61333C10.8315 3.15 10.9909 3.73722 10.9909 4.375C10.9909 5.01278 10.8315 5.6 10.5127 6.13667C10.2017 6.66556 9.78189 7.08556 9.25319 7.39667C8.71671 7.71556 8.1297 7.875 7.49215 7.875ZM7.49215 6.70833C7.912 6.70833 8.30075 6.60333 8.6584 6.39333C9.01605 6.18333 9.29984 5.89944 9.50976 5.54167C9.71969 5.18389 9.82465 4.795 9.82465 4.375C9.82465 3.955 9.71969 3.56611 9.50976 3.20833C9.29984 2.85056 9.01605 2.56667 8.6584 2.35667C8.30075 2.14667 7.912 2.04167 7.49215 2.04167C7.0723 2.04167 6.68355 2.14667 6.3259 2.35667C5.96825 2.56667 5.68446 2.85056 5.47454 3.20833C5.26461 3.56611 5.15965 3.955 5.15965 4.375C5.15965 4.795 5.26461 5.18389 5.47454 5.54167C5.68446 5.89944 5.96825 6.18333 6.3259 6.39333C6.68355 6.60333 7.0723 6.70833 7.49215 6.70833Z" fill="#6B7280"/>
</svg>
