<svg width="15" height="15" viewBox="0 0 15 15" fill="none" xmlns="http://www.w3.org/2000/svg">
<path d="M12.7483 1.79688C12.9116 1.79688 13.0496 1.85326 13.1623 1.96604C13.2751 2.07882 13.3314 2.21688 13.3314 2.38021V5.58854C13.0671 5.58854 12.8241 5.65465 12.6025 5.78687C12.381 5.9191 12.2041 6.09604 12.0719 6.31771C11.9397 6.53937 11.8736 6.78243 11.8736 7.04688C11.8736 7.31132 11.9397 7.55438 12.0719 7.77604C12.2041 7.99771 12.381 8.17465 12.6025 8.30687C12.8241 8.4391 13.0671 8.50521 13.3314 8.50521V11.7135C13.3314 11.8769 13.2751 12.0149 13.1623 12.1277C13.0496 12.2405 12.9116 12.2969 12.7483 12.2969H2.25207C2.0888 12.2969 1.95079 12.2405 1.83805 12.1277C1.72531 12.0149 1.66895 11.8769 1.66895 11.7135V8.50521C1.9333 8.50521 2.17626 8.4391 2.39785 8.30687C2.61944 8.17465 2.79632 7.99771 2.9285 7.77604C3.06067 7.55438 3.12676 7.31132 3.12676 7.04688C3.12676 6.78243 3.06067 6.53937 2.9285 6.31771C2.79632 6.09604 2.61944 5.9191 2.39785 5.78687C2.17626 5.65465 1.9333 5.58854 1.66895 5.58854V2.38021C1.66895 2.21688 1.72531 2.07882 1.83805 1.96604C1.95079 1.85326 2.0888 1.79688 2.25207 1.79688H12.7483Z" fill="#E53E3E"/>
</svg>
