<svg width="15" height="14" viewBox="0 0 15 14" fill="none" xmlns="http://www.w3.org/2000/svg">
<path d="M12.7405 1.75C12.9038 1.75 13.0418 1.80639 13.1545 1.91917C13.2673 2.03194 13.3236 2.17 13.3236 2.33333V5.54167C13.0593 5.54167 12.8163 5.60778 12.5947 5.74C12.3731 5.87222 12.1963 6.04917 12.0641 6.27083C11.9319 6.4925 11.8658 6.73556 11.8658 7C11.8658 7.26444 11.9319 7.5075 12.0641 7.72917C12.1963 7.95083 12.3731 8.12778 12.5947 8.26C12.8163 8.39222 13.0593 8.45833 13.3236 8.45833V11.6667C13.3236 11.83 13.2673 11.9681 13.1545 12.0808C13.0418 12.1936 12.9038 12.25 12.7405 12.25H2.24426C2.08098 12.25 1.94298 12.1936 1.83024 12.0808C1.7175 11.9681 1.66113 11.83 1.66113 11.6667V8.45833C1.92548 8.45833 2.16845 8.39222 2.39004 8.26C2.61163 8.12778 2.78851 7.95083 2.92068 7.72917C3.05286 7.5075 3.11895 7.26444 3.11895 7C3.11895 6.73556 3.05286 6.4925 2.92068 6.27083C2.78851 6.04917 2.61163 5.87222 2.39004 5.74C2.16845 5.60778 1.92548 5.54167 1.66113 5.54167V2.33333C1.66113 2.17 1.7175 2.03194 1.83024 1.91917C1.94298 1.80639 2.08098 1.75 2.24426 1.75H12.7405ZM12.1574 2.91667H2.82738V4.64333L2.92068 4.69C3.31721 4.90778 3.63793 5.21111 3.88284 5.6C4.12775 5.98889 4.26187 6.41278 4.2852 6.87167V7C4.2852 7.49 4.1608 7.93917 3.912 8.3475C3.6632 8.75583 3.33276 9.07667 2.92068 9.31L2.82738 9.35667V11.0833H12.1574V9.35667L12.0641 9.31C11.6676 9.09222 11.3468 8.78889 11.1019 8.4C10.857 8.01111 10.7229 7.58722 10.6996 7.12833V7C10.6996 6.51 10.824 6.06083 11.0728 5.6525C11.3216 5.24417 11.652 4.92333 12.0641 4.69L12.1574 4.64333V2.91667Z" fill="#6B7280"/>
</svg>
